<svg width="24" height="24" viewBox="0 0 24 24" fill="none" xmlns="http://www.w3.org/2000/svg">
<path d="M4.21011 4.38708L4.29311 4.29308C4.4653 4.1209 4.6944 4.01747 4.93742 4.00219C5.18045 3.98691 5.4207 4.06083 5.61311 4.21008L5.70711 4.29308L12.0001 10.5851L18.2931 4.29308C18.3854 4.19757 18.4957 4.12139 18.6177 4.06898C18.7397 4.01657 18.8709 3.98898 19.0037 3.98783C19.1365 3.98668 19.2682 4.01198 19.3911 4.06226C19.514 4.11254 19.6256 4.18679 19.7195 4.28069C19.8134 4.37458 19.8876 4.48623 19.9379 4.60913C19.9882 4.73202 20.0135 4.8637 20.0124 4.99648C20.0112 5.12926 19.9836 5.26048 19.9312 5.38249C19.8788 5.50449 19.8026 5.61483 19.7071 5.70708L13.4151 12.0001L19.7071 18.2931C19.8793 18.4653 19.9827 18.6944 19.998 18.9374C20.0133 19.1804 19.9394 19.4207 19.7901 19.6131L19.7071 19.7071C19.5349 19.8793 19.3058 19.9827 19.0628 19.998C18.8198 20.0133 18.5795 19.9393 18.3871 19.7901L18.2931 19.7071L12.0001 13.4151L5.70711 19.7071C5.5185 19.8892 5.2659 19.99 5.0037 19.9878C4.74151 19.9855 4.49069 19.8803 4.30529 19.6949C4.11988 19.5095 4.01471 19.2587 4.01243 18.9965C4.01015 18.7343 4.11095 18.4817 4.29311 18.2931L10.5851 12.0001L4.29311 5.70708C4.12093 5.53489 4.0175 5.30579 4.00222 5.06276C3.98694 4.81974 4.06085 4.57949 4.21011 4.38708L4.29311 4.29308L4.21011 4.38708Z" fill="white"/>
</svg>
