<svg width="24" height="24" viewBox="0 0 24 24" fill="none" xmlns="http://www.w3.org/2000/svg">
<path d="M3.00085 17H21.0008C21.2557 17.0003 21.5009 17.0979 21.6862 17.2728C21.8715 17.4478 21.9831 17.687 21.998 17.9414C22.013 18.1958 21.9302 18.4464 21.7666 18.6418C21.603 18.8373 21.3709 18.9629 21.1178 18.993L21.0008 19H3.00085C2.74597 18.9997 2.50081 18.9021 2.31548 18.7272C2.13014 18.5522 2.01861 18.313 2.00367 18.0586C1.98874 17.8042 2.07152 17.5536 2.23511 17.3582C2.3987 17.1627 2.63075 17.0371 2.88385 17.007L3.00085 17H21.0008H3.00085ZM3.00085 11L21.0008 10.998C21.2557 10.9983 21.5009 11.0959 21.6862 11.2708C21.8715 11.4458 21.9831 11.685 21.998 11.9394C22.013 12.1938 21.9302 12.4444 21.7666 12.6398C21.603 12.8353 21.3709 12.9609 21.1178 12.991L21.0008 12.998L3.00085 13C2.74597 12.9997 2.50081 12.9021 2.31548 12.7272C2.13014 12.5522 2.01861 12.313 2.00367 12.0586C1.98874 11.8042 2.07152 11.5536 2.23511 11.3582C2.3987 11.1627 2.63075 11.0371 2.88385 11.007L3.00085 11L21.0008 10.998L3.00085 11ZM3.00085 5H21.0008C21.2557 5.00028 21.5009 5.09788 21.6862 5.27285C21.8715 5.44782 21.9831 5.68695 21.998 5.94139C22.013 6.19584 21.9302 6.44638 21.7666 6.64183C21.603 6.83729 21.3709 6.9629 21.1178 6.993L21.0008 7H3.00085C2.74597 6.99972 2.50081 6.90212 2.31548 6.72715C2.13014 6.55218 2.01861 6.31305 2.00367 6.05861C1.98874 5.80416 2.07152 5.55362 2.23511 5.35817C2.3987 5.16271 2.63075 5.0371 2.88385 5.007L3.00085 5H21.0008H3.00085Z" fill="#185CFF"/>
</svg>
