<svg width="34" height="34" viewBox="0 0 34 34" fill="none" xmlns="http://www.w3.org/2000/svg">
<path d="M8.87222 1.86552C10.3044 0.780899 12.0527 0.195905 13.8492 0.200219C14.3532 0.200219 14.7543 0.462719 14.9874 0.643319C15.2478 0.849119 15.4914 1.11162 15.7098 1.37412C15.8647 1.5622 15.9493 1.79829 15.9492 2.04192V9.65022H13.6707C13.423 8.94965 12.9356 8.35919 12.2947 7.98321C11.6538 7.60723 10.9006 7.46993 10.1682 7.59558C9.43583 7.72124 8.77146 8.10176 8.29251 8.66988C7.81356 9.238 7.55087 9.95715 7.55087 10.7002C7.55087 11.4433 7.81356 12.1624 8.29251 12.7306C8.77146 13.2987 9.43583 13.6792 10.1682 13.8049C10.9006 13.9305 11.6538 13.7932 12.2947 13.4172C12.9356 13.0413 13.423 12.4508 13.6707 11.7502H15.9492V31.5217C15.9493 31.6772 15.9149 31.8307 15.8484 31.9713C15.782 32.1118 15.6851 32.2359 15.5649 32.3344C14.5947 33.1282 13.2969 33.8002 11.7492 33.8002C9.25862 33.8002 7.40432 32.5444 6.20522 31.0429C5.34371 29.9731 4.75365 28.7108 4.48532 27.3637C3.66943 27.1462 2.91294 26.7478 2.27192 26.1982C1.11272 25.2049 0.199219 23.5942 0.199219 21.2002C0.199219 20.0305 0.276919 18.9742 0.451218 18.0502H7.02422C8.35982 18.0502 9.46022 19.0477 9.62822 20.3371C8.92986 20.5899 8.34325 21.0812 7.97199 21.7244C7.60072 22.3677 7.46867 23.1214 7.59915 23.8525C7.72963 24.5837 8.11426 25.2452 8.6851 25.7203C9.25595 26.1954 9.97631 26.4535 10.719 26.4491C11.4617 26.4446 12.1789 26.1779 12.744 25.696C13.3091 25.2141 13.6858 24.5481 13.8076 23.8154C13.9293 23.0828 13.7882 22.3307 13.4093 21.692C13.0304 21.0532 12.438 20.5689 11.7366 20.3245C11.6481 19.1353 11.1132 18.0235 10.2392 17.2122C9.36518 16.4009 8.21673 15.9501 7.02422 15.9502H1.12532C1.44662 15.3244 1.87712 14.7952 2.43782 14.4193C2.57965 14.3254 2.72849 14.2426 2.88302 14.1715C2.28662 12.4243 2.44202 10.3789 3.01742 8.77242C3.38492 7.73922 3.96872 6.76272 4.77092 6.11172C5.30012 5.68122 5.93012 5.39772 6.61892 5.34312C6.92132 3.90882 7.77182 2.72232 8.87432 1.86552H8.87222ZM18.0492 26.4502H19.6242C20.8774 26.4502 22.0792 25.9524 22.9653 25.0663C23.8514 24.1802 24.3492 22.9784 24.3492 21.7252V17.8717C25.0498 17.624 25.6402 17.1366 26.0162 16.4957C26.3922 15.8548 26.5295 15.1016 26.4039 14.3692C26.2782 13.6368 25.8977 12.9725 25.3296 12.4935C24.7614 12.0146 24.0423 11.7519 23.2992 11.7519C22.5561 11.7519 21.837 12.0146 21.2689 12.4935C20.7008 12.9725 20.3202 13.6368 20.1946 14.3692C20.0689 15.1016 20.2062 15.8548 20.5822 16.4957C20.9582 17.1366 21.5486 17.624 22.2492 17.8717V21.7252C22.2492 23.1742 21.0732 24.3502 19.6242 24.3502H18.0492V2.04192C18.0491 1.79829 18.1338 1.5622 18.2886 1.37412C18.5049 1.11162 18.7506 0.849119 19.011 0.643319C19.242 0.462719 19.6431 0.200219 20.1492 0.200219C21.9457 0.195905 23.6941 0.780899 25.1262 1.86552C26.2287 2.72232 27.0792 3.90882 27.3795 5.34312C28.0683 5.39562 28.6983 5.68122 29.2275 6.11172C30.0297 6.76272 30.6135 7.73922 30.981 8.77242C31.5564 10.3789 31.7118 12.4264 31.1154 14.1694C31.2666 14.2408 31.4157 14.3248 31.5606 14.4214C32.1381 14.8057 32.577 15.3559 32.9004 16.0048C33.5367 17.2753 33.7992 19.0477 33.7992 21.2002C33.7992 23.5963 32.8857 25.2049 31.7265 26.1982C31.0855 26.7478 30.329 27.1462 29.5131 27.3637C29.3031 28.5355 28.7151 29.8921 27.7932 31.0429C26.5962 32.5444 24.7398 33.8002 22.2492 33.8002C20.7036 33.8002 19.4037 33.1282 18.4356 32.3344C18.315 32.2361 18.2178 32.1121 18.1509 31.9716C18.0841 31.831 18.0494 31.6774 18.0492 31.5217V26.4502ZM10.6992 9.65022C10.4207 9.65022 10.1537 9.76085 9.95676 9.95776C9.75984 10.1547 9.64922 10.4217 9.64922 10.7002C9.64922 10.9787 9.75984 11.2458 9.95676 11.4427C10.1537 11.6396 10.4207 11.7502 10.6992 11.7502C10.9777 11.7502 11.2448 11.6396 11.4417 11.4427C11.6386 11.2458 11.7492 10.9787 11.7492 10.7002C11.7492 10.4217 11.6386 10.1547 11.4417 9.95776C11.2448 9.76085 10.9777 9.65022 10.6992 9.65022ZM10.6992 22.2502C10.4207 22.2502 10.1537 22.3608 9.95676 22.5578C9.75984 22.7547 9.64922 23.0217 9.64922 23.3002C9.64922 23.5787 9.75984 23.8458 9.95676 24.0427C10.1537 24.2396 10.4207 24.3502 10.6992 24.3502C10.9777 24.3502 11.2448 24.2396 11.4417 24.0427C11.6386 23.8458 11.7492 23.5787 11.7492 23.3002C11.7492 23.0217 11.6386 22.7547 11.4417 22.5578C11.2448 22.3608 10.9777 22.2502 10.6992 22.2502ZM23.2992 15.9502C23.5777 15.9502 23.8448 15.8396 24.0417 15.6427C24.2386 15.4458 24.3492 15.1787 24.3492 14.9002C24.3492 14.6217 24.2386 14.3547 24.0417 14.1578C23.8448 13.9608 23.5777 13.8502 23.2992 13.8502C23.0207 13.8502 22.7537 13.9608 22.5568 14.1578C22.3598 14.3547 22.2492 14.6217 22.2492 14.9002C22.2492 15.1787 22.3598 15.4458 22.5568 15.6427C22.7537 15.8396 23.0207 15.9502 23.2992 15.9502Z" fill="#185CFF"/>
</svg>
