<svg width="34" height="36" viewBox="0 0 34 36" fill="none" xmlns="http://www.w3.org/2000/svg">
<path d="M24.75 4C24.2859 4 23.8407 3.81563 23.5126 3.48744C23.1844 3.15925 23 2.71413 23 2.25C23 1.78587 23.1844 1.34075 23.5126 1.01256C23.8407 0.684374 24.2859 0.5 24.75 0.5H31.75C32.2141 0.5 32.6592 0.684374 32.9874 1.01256C33.3156 1.34075 33.5 1.78587 33.5 2.25V9.25C33.5 9.71413 33.3156 10.1592 32.9874 10.4874C32.6592 10.8156 32.2141 11 31.75 11C31.2859 11 30.8407 10.8156 30.5126 10.4874C30.1844 10.1592 30 9.71413 30 9.25V6.4745L19.8622 16.6122C19.5341 16.9403 19.089 17.1246 18.625 17.1246C18.161 17.1246 17.7159 16.9403 17.3878 16.6122L12.5 11.7245L3.23725 20.9872C2.9072 21.306 2.46514 21.4824 2.0063 21.4784C1.54745 21.4744 1.10853 21.2904 0.784068 20.9659C0.459603 20.6415 0.275558 20.2025 0.271571 19.7437C0.267583 19.2849 0.443973 18.8428 0.76275 18.5128L11.2628 8.01275C11.5909 7.68468 12.036 7.50037 12.5 7.50037C12.964 7.50037 13.4091 7.68468 13.7372 8.01275L18.625 12.9005L27.5255 4H24.75ZM3.75 28.5V33.75C3.75 34.2141 3.56563 34.6592 3.23744 34.9874C2.90925 35.3156 2.46413 35.5 2 35.5C1.53587 35.5 1.09075 35.3156 0.762563 34.9874C0.434374 34.6592 0.25 34.2141 0.25 33.75V28.5C0.25 28.0359 0.434374 27.5907 0.762563 27.2626C1.09075 26.9344 1.53587 26.75 2 26.75C2.46413 26.75 2.90925 26.9344 3.23744 27.2626C3.56563 27.5907 3.75 28.0359 3.75 28.5ZM12.5 21.5C12.5 21.0359 12.3156 20.5908 11.9874 20.2626C11.6592 19.9344 11.2141 19.75 10.75 19.75C10.2859 19.75 9.84075 19.9344 9.51256 20.2626C9.18437 20.5908 9 21.0359 9 21.5V33.75C9 34.2141 9.18437 34.6592 9.51256 34.9874C9.84075 35.3156 10.2859 35.5 10.75 35.5C11.2141 35.5 11.6592 35.3156 11.9874 34.9874C12.3156 34.6592 12.5 34.2141 12.5 33.75V21.5ZM19.5 23.25C19.9641 23.25 20.4092 23.4344 20.7374 23.7626C21.0656 24.0908 21.25 24.5359 21.25 25V33.75C21.25 34.2141 21.0656 34.6592 20.7374 34.9874C20.4092 35.3156 19.9641 35.5 19.5 35.5C19.0359 35.5 18.5908 35.3156 18.2626 34.9874C17.9344 34.6592 17.75 34.2141 17.75 33.75V25C17.75 24.5359 17.9344 24.0908 18.2626 23.7626C18.5908 23.4344 19.0359 23.25 19.5 23.25ZM30 16.25C30 15.7859 29.8156 15.3408 29.4874 15.0126C29.1593 14.6844 28.7141 14.5 28.25 14.5C27.7859 14.5 27.3407 14.6844 27.0126 15.0126C26.6844 15.3408 26.5 15.7859 26.5 16.25V33.75C26.5 34.2141 26.6844 34.6592 27.0126 34.9874C27.3407 35.3156 27.7859 35.5 28.25 35.5C28.7141 35.5 29.1593 35.3156 29.4874 34.9874C29.8156 34.6592 30 34.2141 30 33.75V16.25Z" fill="#185CFF"/>
</svg>
