<svg width="32" height="32" viewBox="0 0 32 32" fill="none" xmlns="http://www.w3.org/2000/svg">
<path d="M14.6875 25.1875V26.5C14.6875 26.8481 14.5492 27.1819 14.3031 27.4281C14.0569 27.6742 13.7231 27.8125 13.375 27.8125H10.75V29.125C10.75 29.8212 10.4734 30.4889 9.98115 30.9812C9.48887 31.4734 8.82119 31.75 8.125 31.75H2.875C2.17881 31.75 1.51113 31.4734 1.01884 30.9812C0.526562 30.4889 0.25 29.8212 0.25 29.125V25.7309C0.250149 25.0347 0.526808 24.3672 1.01912 23.875L11.1753 13.7176C10.5521 11.6026 10.6105 9.3451 11.3423 7.2652C12.0741 5.18531 13.442 3.38854 15.2522 2.12967C17.0624 0.870793 19.2229 0.213698 21.4274 0.251548C23.632 0.289398 25.7687 1.02027 27.5345 2.34054C29.3004 3.66082 30.6059 5.50348 31.2658 7.60727C31.9258 9.71107 31.9067 11.9692 31.2113 14.0616C30.5159 16.1539 29.1795 17.9743 27.3915 19.2645C25.6036 20.5547 23.4549 21.2494 21.25 21.25H18.625V23.875C18.625 24.2231 18.4867 24.5569 18.2406 24.8031C17.9944 25.0492 17.6606 25.1875 17.3125 25.1875H14.6875ZM23.875 10.75C24.5712 10.75 25.2389 10.4734 25.7312 9.98115C26.2234 9.48887 26.5 8.82119 26.5 8.125C26.5 7.42881 26.2234 6.76113 25.7312 6.26885C25.2389 5.77656 24.5712 5.5 23.875 5.5C23.1788 5.5 22.5111 5.77656 22.0188 6.26885C21.5266 6.76113 21.25 7.42881 21.25 8.125C21.25 8.82119 21.5266 9.48887 22.0188 9.98115C22.5111 10.4734 23.1788 10.75 23.875 10.75Z" fill="#185CFF"/>
</svg>
