<svg width="34" height="34" viewBox="0 0 34 34" fill="none" xmlns="http://www.w3.org/2000/svg">
<path d="M2.29928 1.22693C2.29622 0.948452 2.18266 0.682597 1.98358 0.48785C1.7845 0.293103 1.51621 0.185416 1.23773 0.188479C0.959255 0.191542 0.693401 0.305105 0.498653 0.504184C0.303906 0.703263 0.196219 0.971552 0.199282 1.25003V32.75C0.199282 33.0285 0.309907 33.2956 0.50682 33.4925C0.703734 33.6894 0.970805 33.8 1.24928 33.8H32.7493C33.0278 33.8 33.2948 33.6894 33.4917 33.4925C33.6887 33.2956 33.7993 33.0285 33.7993 32.75C33.7993 32.4715 33.6887 32.2045 33.4917 32.0076C33.2948 31.8107 33.0278 31.7 32.7493 31.7H2.29928V1.22693ZM29.5993 29.6V7.55003C29.599 7.35245 29.543 7.15896 29.4377 6.9918C29.3323 6.82463 29.182 6.69057 29.0039 6.60503C28.8258 6.51949 28.6272 6.48594 28.4308 6.50823C28.2345 6.53051 28.0485 6.60774 27.8941 6.73103L17.9506 14.6837L11.2201 10.8386C11.0773 10.7572 10.9175 10.7104 10.7533 10.702C10.5892 10.6936 10.4254 10.7239 10.2751 10.7903L4.39928 13.4006V29.6H29.5993Z" fill="#185CFF"/>
</svg>
