<svg width="34" height="34" viewBox="0 0 34 34" fill="none" xmlns="http://www.w3.org/2000/svg">
<path d="M12.8055 4.54702C13.9542 4.38322 14.8992 5.34082 14.8992 6.50002V19.1H27.4992C28.6584 19.1 29.616 20.045 29.4522 21.1937C28.9141 24.866 27.0072 28.199 24.1141 30.5239C21.221 32.8488 17.5557 33.9936 13.8536 33.7286C10.1516 33.4637 6.68671 31.8085 4.15418 29.0953C1.62164 26.3821 0.20883 22.8115 0.199219 19.1C0.199405 15.5638 1.47394 12.1461 3.78923 9.47331C6.10453 6.80048 9.30551 5.05154 12.8055 4.54702ZM31.8294 17C32.8752 17 33.7761 16.2314 33.7971 15.1856L33.7992 14.9C33.7993 12.9455 33.4096 11.0106 32.653 9.20846C31.8963 7.40634 30.7878 5.77322 29.3925 4.40462C27.9971 3.03602 26.3428 1.95944 24.5263 1.23784C22.7099 0.516251 20.7678 0.164142 18.8136 0.202116C17.7678 0.223116 16.9992 1.12612 16.9992 2.16982V14.9C16.9992 15.457 17.2205 15.9911 17.6143 16.3849C18.0081 16.7788 18.5423 17 19.0992 17H31.8294Z" fill="#185CFF"/>
</svg>
