<svg width="29" height="36" viewBox="0 0 29 36" fill="none" xmlns="http://www.w3.org/2000/svg">
<path d="M24.0686 21.5C24.5856 21.5 25.0977 21.6018 25.5754 21.7997C26.0531 21.9976 26.4872 22.2876 26.8528 22.6533C27.2184 23.0189 27.5085 23.453 27.7063 23.9307C27.9042 24.4084 28.0061 24.9204 28.0061 25.4375V27.0195C28.0063 27.9655 27.802 28.9003 27.4072 29.7599C27.0125 30.6196 26.4365 31.3837 25.7188 32C22.9801 34.352 19.0583 35.5 14.0008 35.5C8.94331 35.5 5.02681 34.352 2.29331 32C1.57662 31.3841 1.00138 30.6208 0.606927 29.7621C0.212473 28.9034 0.00811007 27.9697 0.0078125 27.0247V25.4358C0.00827649 24.3918 0.423323 23.3907 1.1617 22.6526C1.90007 21.9146 2.90133 21.5 3.94531 21.5H24.0703H24.0686ZM13.8258 0.5105L14.0008 0.5C14.318 0.500013 14.6244 0.614875 14.8634 0.823342C15.1025 1.03181 15.2579 1.31978 15.3011 1.634L15.3133 1.8125L15.3116 3.12325H21.4366C22.4809 3.12325 23.4824 3.53809 24.2208 4.27652C24.9592 5.01494 25.3741 6.01646 25.3741 7.06075V14.9445C25.3741 15.9888 24.9592 16.9903 24.2208 17.7287C23.4824 18.4672 22.4809 18.882 21.4366 18.882H6.56156C5.51727 18.882 4.51575 18.4672 3.77733 17.7287C3.0389 16.9903 2.62406 15.9888 2.62406 14.9445V7.0625C2.62406 6.54527 2.72597 6.03311 2.92395 5.55528C3.12194 5.07745 3.41213 4.6433 3.77795 4.27765C4.14376 3.91199 4.57804 3.622 5.05596 3.42422C5.53388 3.22645 6.04608 3.12477 6.56331 3.125L12.6883 3.12325V1.8125C12.6884 1.49507 12.8035 1.18842 13.0123 0.949355C13.2211 0.710287 13.5095 0.554997 13.8241 0.51225L14.0008 0.5L13.8223 0.51225L13.8258 0.5105ZM10.0616 8.375C9.76717 8.36322 9.47342 8.41103 9.19796 8.51556C8.9225 8.6201 8.67099 8.7792 8.45853 8.98333C8.24607 9.18746 8.07703 9.4324 7.96157 9.70346C7.8461 9.97452 7.78658 10.2661 7.78658 10.5608C7.78658 10.8554 7.8461 11.147 7.96157 11.418C8.07703 11.6891 8.24607 11.934 8.45853 12.1382C8.67099 12.3423 8.9225 12.5014 9.19796 12.6059C9.47342 12.7105 9.76717 12.7583 10.0616 12.7465C10.6261 12.7239 11.16 12.4837 11.5515 12.0763C11.943 11.6689 12.1616 11.1258 12.1616 10.5608C12.1616 9.99574 11.943 9.45263 11.5515 9.0452C11.16 8.63776 10.6261 8.3976 10.0616 8.375ZM17.9243 8.375C17.6299 8.36322 17.3362 8.41103 17.0607 8.51556C16.7852 8.6201 16.5337 8.7792 16.3213 8.98333C16.1088 9.18746 15.9398 9.4324 15.8243 9.70346C15.7088 9.97452 15.6493 10.2661 15.6493 10.5608C15.6493 10.8554 15.7088 11.147 15.8243 11.418C15.9398 11.6891 16.1088 11.934 16.3213 12.1382C16.5337 12.3423 16.7852 12.5014 17.0607 12.6059C17.3362 12.7105 17.6299 12.7583 17.9243 12.7465C18.4889 12.7239 19.0228 12.4837 19.4143 12.0763C19.8057 11.6689 20.0243 11.1258 20.0243 10.5608C20.0243 9.99574 19.8057 9.45263 19.4143 9.0452C19.0228 8.63776 18.4889 8.3976 17.9243 8.375Z" fill="#185CFF"/>
</svg>
