<svg width="24" height="24" viewBox="0 0 24 24" fill="none" xmlns="http://www.w3.org/2000/svg">
<path d="M12.0005 0.480042C5.63807 0.480042 0.480469 5.63764 0.480469 12C0.480469 18.3624 5.63807 23.52 12.0005 23.52C18.3629 23.52 23.5205 18.3624 23.5205 12C23.5205 5.63764 18.3629 0.480042 12.0005 0.480042ZM16.6865 9.91684C16.6913 10.0152 16.6925 10.1136 16.6925 10.2096C16.6925 13.2096 14.4113 16.6668 10.2377 16.6668C9.00442 16.6689 7.79683 16.3147 6.76007 15.6468C6.93647 15.6684 7.11767 15.6768 7.30127 15.6768C8.36447 15.6768 9.34247 15.3156 10.1189 14.706C9.64573 14.6968 9.18727 14.5401 8.8074 14.2579C8.42753 13.9756 8.14517 13.582 7.99967 13.1316C8.33946 13.1963 8.68949 13.1827 9.02327 13.092C8.50973 12.9882 8.04791 12.7099 7.71612 12.3044C7.38433 11.8989 7.203 11.3912 7.20287 10.8672V10.8396C7.50887 11.0088 7.85927 11.112 8.23127 11.124C7.74983 10.8036 7.40901 10.3112 7.27852 9.7478C7.14803 9.18436 7.23773 8.59235 7.52927 8.09284C8.09922 8.79364 8.80998 9.36694 9.61555 9.77561C10.4211 10.1843 11.3035 10.4192 12.2057 10.4652C12.091 9.97841 12.1403 9.46733 12.3461 9.01145C12.5518 8.55557 12.9024 8.18043 13.3434 7.94436C13.7843 7.70829 14.2909 7.62451 14.7843 7.70605C15.2778 7.78759 15.7305 8.02987 16.0721 8.39524C16.5799 8.29477 17.0668 8.10851 17.5121 7.84444C17.3428 8.3702 16.9885 8.81665 16.5149 9.10084C16.9647 9.04666 17.4039 8.92573 17.8181 8.74204C17.5139 9.19792 17.1306 9.59577 16.6865 9.91684Z" fill="#9497A1"/>
</svg>
